<?xml version="1.0" standalone="no"?>
<!DOCTYPE svg PUBLIC "-//W3C//DTD SVG 20010904//EN"
 "http://www.w3.org/TR/2001/REC-SVG-20010904/DTD/svg10.dtd">
<svg version="1.0" xmlns="http://www.w3.org/2000/svg"
 width="512.000000pt" height="512.000000pt" viewBox="0 0 512.000000 512.000000"
 preserveAspectRatio="xMidYMid meet">
<metadata>
Created by potrace 1.11, written by Peter Selinger 2001-2013
</metadata>
<g transform="translate(0.000000,512.000000) scale(0.100000,-0.100000)"
fill="#000000" stroke="none">
<path d="M2439 4153 c-8 -9 -14 -36 -13 -62 2 -86 118 -963 125 -944 10 25
119 898 119 949 0 63 -19 74 -127 74 -72 0 -93 -3 -104 -17z"/>
<path d="M2992 3871 c-14 -8 -295 -671 -288 -678 4 -4 411 526 435 568 21 37
10 55 -55 91 -52 29 -71 33 -92 19z"/>
<path d="M2015 3801 c-16 -10 -39 -28 -49 -40 -16 -18 -17 -25 -7 -47 14 -32
434 -585 439 -579 5 5 -256 631 -276 663 -18 28 -65 29 -107 3z"/>
<path d="M3370 3635 c-71 -20 -125 -53 -176 -107 -36 -38 -620 -718 -652 -760
-11 -14 -2 -39 63 -176 l77 -160 45 26 c67 37 154 37 211 0 153 -101 116 -331
-62 -379 -35 -9 -38 -13 -32 -37 4 -15 9 -81 13 -147 l6 -120 786 -209 c432
-115 796 -213 807 -217 l21 -7 -30 -104 c-32 -111 -32 -150 3 -168 11 -6 97
-31 191 -56 146 -38 177 -43 200 -34 15 7 31 19 34 28 4 10 59 211 122 447 92
342 116 447 120 515 4 76 -6 139 -96 618 -62 323 -109 548 -120 570 -30 58
-94 125 -150 155 -59 33 -1181 326 -1271 333 -32 2 -78 -3 -110 -11z m680
-437 c261 -71 491 -136 510 -144 54 -23 99 -72 115 -128 18 -58 139 -705 134
-710 -2 -2 -429 110 -949 250 -520 139 -951 255 -959 256 -12 3 321 399 443
527 68 71 116 93 181 86 28 -4 264 -65 525 -137z m694 -1232 c80 -47 120 -144
96 -230 -52 -185 -295 -212 -382 -42 -54 105 8 269 110 292 15 3 32 7 37 10
26 9 98 -6 139 -30z"/>
<path d="M667 3190 c-53 -20 -125 -73 -157 -112 -17 -22 -429 -877 -484 -1003
-20 -49 -21 -64 -24 -569 -3 -476 -1 -520 14 -537 16 -17 34 -19 220 -19 l203
0 20 26 c18 23 21 41 21 140 l0 114 905 0 905 0 0 -120 c0 -169 -13 -160 239
-160 l200 0 21 27 c21 27 21 31 18 522 -3 483 -4 498 -25 557 -34 94 -452 964
-484 1008 -15 21 -51 56 -79 77 -94 70 -77 69 -809 69 -619 -1 -659 -2 -704
-20z m1311 -290 c57 -26 79 -63 248 -424 l141 -301 -985 -3 c-542 -1 -987 -1
-989 1 -1 2 66 147 150 323 127 264 161 327 199 366 25 25 56 48 69 51 13 2
272 5 574 5 524 2 552 1 593 -18z m-1450 -995 c110 -47 152 -170 97 -282 -63
-126 -239 -153 -331 -51 -76 83 -75 221 3 294 15 15 42 33 58 40 41 18 128 17
173 -1z m1893 -8 c124 -66 145 -235 40 -330 -75 -68 -189 -77 -259 -20 -100
80 -118 190 -49 294 50 76 179 103 268 56z"/>
</g>
</svg>
